# xmcd CD database file
#
# Track frame offsets:
#	150
#	15819
#	30587
#	39040
#	52072
#	64236
#	83809
#	94566
#	105757
#	116018
#	127322
#	141694
#	155766
#	173735
#	188681
#	222344
#
# Disc length: 4307 seconds
#
# Revision: 2
# Processed by: cddbd v1.5.1PL2 Copyright (c) Steve Scherf et al.
# Submitted via: CDex 1.51
#
DISCID=d410d110
DTITLE=The Inkwell Rhythm Makers - En' Rag-O-Phonic
DYEAR=2005
DGENRE=Other
TTITLE0=Ragland Intro
TTITLE1=Cocaine Blues
TTITLE2=Bear Cat Mamma
TTITLE3=Over to My House
TTITLE4=Ragged But Right
TTITLE5=Oh Babe It Aint' No Lie
TTITLE6=My Carolina Sushine Gal
TTITLE7=Crazy Bout' a Woman
TTITLE8=I Might Have Known
TTITLE9=What's That Tastes Like Gravy
TTITLE10=I'm a Dreamer
TTITLE11=Somebody Stole My Gal
TTITLE12=Pick Poor Robin Clean
TTITLE13=Aint' No Tellin'
TTITLE14=Death March Blues
TTITLE15=Ragland
EXTD=YEAR: 2005
EXTT0=
EXTT1=
EXTT2=
EXTT3=
EXTT4=
EXTT5=
EXTT6=
EXTT7=
EXTT8=
EXTT9=
EXTT10=
EXTT11=
EXTT12=
EXTT13=
EXTT14=
EXTT15=
PLAYORDER=
